<svg width="106" height="92" viewBox="0 0 106 92" fill="none" xmlns="http://www.w3.org/2000/svg">
<path d="M105.275 39.2922L40.6816 2.00092C38.827 0.933755 36.6248 0.64543 34.5579 1.19914C32.491 1.75285 30.728 3.10342 29.6552 4.95484L22.2186 17.8347L17.2681 26.4082C16.2003 28.2636 15.9119 30.4667 16.4661 32.5343C17.0203 34.602 18.3719 36.3655 20.2245 37.438L42.371 50.2235L38.9268 56.0965C38.4687 56.8739 37.816 57.5186 37.0331 57.9671C36.2502 58.4157 35.3639 58.6526 34.4616 58.6546H21.5312V48.7999C21.5312 48.4156 21.3786 48.0469 21.1068 47.7752C20.835 47.5034 20.4664 47.3507 20.082 47.3507H12.2148V45.4808C12.2129 43.7793 11.5361 42.148 10.3329 40.9448C9.12971 39.7416 7.49842 39.0648 5.79688 39.0628H1.44922C1.25887 39.0627 1.07037 39.1001 0.894498 39.1729C0.718622 39.2457 0.558818 39.3525 0.424224 39.487C0.28963 39.6216 0.182885 39.7814 0.110094 39.9573C0.0373022 40.1332 -0.000108625 40.3217 2.369e-07 40.512V89.6339C-0.000108625 89.8243 0.0373022 90.0128 0.110094 90.1887C0.182885 90.3645 0.28963 90.5243 0.424224 90.6589C0.558818 90.7935 0.718622 90.9003 0.894498 90.9731C1.07037 91.0459 1.25887 91.0833 1.44922 91.0832H5.79688C7.49842 91.0812 9.12971 90.4044 10.3329 89.2012C11.5361 87.998 12.2129 86.3667 12.2148 84.6652V80.0616H20.082C20.4664 80.0616 20.835 79.909 21.1068 79.6372C21.3786 79.3654 21.5312 78.9968 21.5312 78.6124V71.4905H34.4616C37.601 71.4839 40.6847 70.6599 43.409 69.0997C46.1333 67.5394 48.4044 65.2968 49.9989 62.5923L53.4878 56.6431L65.6272 63.6515C66.8495 64.3607 68.2372 64.7349 69.6503 64.7364C70.3606 64.7361 71.0678 64.6425 71.7537 64.4581C73.0719 64.1075 74.279 63.4266 75.2608 62.4797C76.8487 63.2164 78.5777 63.599 80.3281 63.601C81.4009 63.6003 82.4689 63.4588 83.5048 63.1803C86.1471 62.4781 88.4737 60.9019 90.1058 58.7084L93.0738 60.4218C93.2386 60.5171 93.4206 60.579 93.6094 60.6039C93.7981 60.6288 93.99 60.6163 94.1739 60.567C94.3578 60.5177 94.5302 60.4326 94.6812 60.3166C94.8321 60.2006 94.9588 60.056 95.0538 59.891L105.803 41.2739C105.898 41.1092 105.96 40.9272 105.986 40.7385C106.011 40.5497 105.999 40.3578 105.95 40.1738C105.901 39.9898 105.816 39.8172 105.7 39.666C105.584 39.5147 105.44 39.3877 105.275 39.2922ZM9.31641 84.6652C9.31553 85.5984 8.94444 86.493 8.28459 87.1529C7.62474 87.8128 6.73004 88.1838 5.79688 88.1847H2.89844V41.9613H5.79688C6.73004 41.9621 7.62474 42.3332 8.28459 42.9931C8.94444 43.6529 9.31553 44.5476 9.31641 45.4808V84.6652ZM18.6328 77.1632H12.2148V50.2491H18.6328V77.1632ZM47.4979 61.1257C46.1604 63.3952 44.2549 65.2772 41.9691 66.5865C39.6832 67.8958 37.0959 68.5873 34.4616 68.5929H21.5312V61.5539H34.4616C35.8691 61.5508 37.2515 61.1813 38.4729 60.4817C39.6942 59.7821 40.7123 58.7765 41.427 57.564L44.8844 51.6743L50.981 55.1939L47.4979 61.1257ZM67.0781 61.1415L21.6737 34.928C20.4859 34.2406 19.6194 33.1101 19.2642 31.7846C18.909 30.459 19.0941 29.0467 19.7789 27.8575L24.0024 20.5393L65.6132 44.5632L78.3704 51.9286L74.1462 59.25L74.1404 59.2591C74.0302 59.4461 73.9082 59.6259 73.7752 59.7974V59.8032C73.0109 60.8004 71.9104 61.4859 70.6784 61.7321C69.4464 61.9782 68.1669 61.7684 67.0781 61.1415ZM82.7603 60.3804C80.8621 60.8937 78.8495 60.7878 77.0156 60.0782L80.8854 53.3761L87.5875 57.2451C86.353 58.7779 84.6612 59.8764 82.7587 60.3804H82.7603ZM93.2734 57.1839L83.9015 51.7729L81.0734 50.1407L49.0772 31.6685L25.4532 18.0293L32.1652 6.40406C32.8529 5.2166 33.9835 4.3504 35.309 3.9955C36.6345 3.6406 38.0467 3.82598 39.2357 4.51097L102.571 41.0785L93.2734 57.1839Z" fill="#FFB800"/>
<path d="M87.0807 49.3067C87.9246 49.7969 88.883 50.0555 89.859 50.0562C90.349 50.0558 90.8367 49.9912 91.3099 49.864C92.5554 49.5305 93.6467 48.7753 94.3979 47.7273C95.149 46.6793 95.5136 45.4033 95.4294 44.1167C95.3452 42.83 94.8175 41.6123 93.9362 40.6712C93.0549 39.73 91.8745 39.1235 90.5961 38.955C89.3178 38.7865 88.0206 39.0665 86.9255 39.7473C85.8305 40.428 85.0054 41.4674 84.5907 42.6883C84.1761 43.9092 84.1976 45.2362 84.6516 46.443C85.1057 47.6498 85.9641 48.6619 87.0807 49.3067ZM87.5519 43.143C87.7272 42.839 87.961 42.5728 88.2397 42.3596C88.5184 42.1464 88.8365 41.9905 89.1758 41.9008C89.4027 41.8401 89.6366 41.8092 89.8714 41.8089C90.4608 41.809 91.0337 42.0035 91.5012 42.3624C91.9688 42.7212 92.3048 43.2243 92.4573 43.7936C92.6097 44.3629 92.5701 44.9667 92.3445 45.5111C92.1188 46.0556 91.7198 46.5104 91.2094 46.805C90.6989 47.0997 90.1055 47.2176 89.5212 47.1406C88.9369 47.0635 88.3943 46.7959 87.9776 46.379C87.5609 45.9622 87.2934 45.4196 87.2166 44.8352C87.1398 44.2509 87.2579 43.6575 87.5527 43.1471L87.5519 43.143Z" fill="#FFB800"/>
<path d="M37.6797 34.6299L25.8044 27.7722C25.6395 27.6755 25.4571 27.6124 25.2678 27.5865C25.0784 27.5606 24.8858 27.5725 24.701 27.6213C24.5162 27.6702 24.343 27.7551 24.1911 27.8712C24.0393 27.9873 23.912 28.1323 23.8164 28.2978C23.7208 28.4633 23.6589 28.6461 23.6343 28.8356C23.6097 29.0251 23.6228 29.2177 23.6729 29.4021C23.7229 29.5866 23.809 29.7593 23.9261 29.9103C24.0432 30.0614 24.189 30.1878 24.3552 30.2822L36.2338 37.1391C36.5653 37.3124 36.951 37.3509 37.3101 37.2464C37.6693 37.1418 37.9742 36.9025 38.1609 36.5784C38.3477 36.2543 38.4019 35.8705 38.3122 35.5073C38.2225 35.1442 37.9959 34.8298 37.6797 34.6299Z" fill="#FFB800"/>
</svg>
