<svg width="39" height="25" viewBox="0 0 39 25" fill="none" xmlns="http://www.w3.org/2000/svg">
<rect width="39" height="25" rx="10" fill="#FFB800"/>
<g clip-path="url(#clip0)">
<path d="M17.0164 20C17.9957 20 18.7896 19.2062 18.7896 18.2268C18.7896 17.2475 17.9957 16.4536 17.0164 16.4536C16.0371 16.4536 15.2432 17.2475 15.2432 18.2268C15.2432 19.2062 16.0371 20 17.0164 20Z" fill="white"/>
<path d="M22.1912 16.4536C21.2119 16.4536 20.418 17.2475 20.418 18.2268C20.418 19.2061 21.2119 20 22.1912 20C23.1705 20 23.9644 19.2061 23.9644 18.2268C23.9644 17.2475 23.1705 16.4536 22.1912 16.4536Z" fill="white"/>
<path d="M25.213 14.6442H15.9669L15.786 13.5947H23.3855C23.609 13.5954 23.8102 13.4589 23.8921 13.2509L25.7015 8.69124C25.8115 8.41234 25.6745 8.0971 25.3956 7.9872C25.3317 7.962 25.2636 7.94917 25.1949 7.94938H14.8451L14.4108 5.4524C14.3662 5.18838 14.1358 4.99631 13.868 5.00005H11.7872C11.4874 5.00005 11.2444 5.24309 11.2444 5.54288C11.2444 5.84266 11.4874 6.0857 11.7872 6.0857H13.4157L14.9718 15.2775C15.0164 15.5415 15.2468 15.7336 15.5146 15.7298H25.213C25.5128 15.7298 25.7558 15.4868 25.7558 15.187C25.7558 14.8872 25.5128 14.6442 25.213 14.6442Z" fill="white"/>
</g>
<defs>
<clipPath id="clip0">
<rect width="15" height="15" fill="white" transform="translate(11 5)"/>
</clipPath>
</defs>
</svg>
