<svg width="30" height="30" viewBox="0 0 30 30" fill="none" xmlns="http://www.w3.org/2000/svg">
<path d="M12.0328 30.0001C13.9914 30.0001 15.5792 28.4123 15.5792 26.4537C15.5792 24.495 13.9914 22.9072 12.0328 22.9072C10.0741 22.9072 8.48633 24.495 8.48633 26.4537C8.48633 28.4123 10.0741 30.0001 12.0328 30.0001Z" fill="white"/>
<path d="M22.3824 22.9072C20.4238 22.9072 18.8359 24.4951 18.8359 26.4537C18.8359 28.4123 20.4238 30.0001 22.3824 30.0001C24.341 30.0001 25.9288 28.4123 25.9288 26.4537C25.9288 24.4951 24.341 22.9072 22.3824 22.9072Z" fill="white"/>
<path d="M28.426 19.2884H9.93386L9.57198 17.1895H24.771C25.2181 17.1908 25.6203 16.9178 25.7842 16.5019L29.4031 7.38248C29.6229 6.82467 29.3489 6.19421 28.7911 5.97439C28.6633 5.924 28.5271 5.89834 28.3898 5.89877H7.6902L6.82169 0.90481C6.73249 0.376761 6.27151 -0.00738435 5.73604 0.000107711H1.57441C0.974835 0.000107711 0.48877 0.486173 0.48877 1.08575C0.48877 1.68533 0.974835 2.17139 1.57441 2.17139H4.83134L7.94352 20.5549C8.03271 21.083 8.49369 21.4671 9.02916 21.4596H28.426C29.0256 21.4596 29.5116 20.9736 29.5116 20.374C29.5116 19.7744 29.0256 19.2884 28.426 19.2884Z" fill="white"/>
</svg>
