<svg width="31" height="31" viewBox="0 0 31 31" fill="none" xmlns="http://www.w3.org/2000/svg">
<path d="M12.4337 31C14.4576 31 16.0983 29.3593 16.0983 27.3354C16.0983 25.3114 14.4576 23.6707 12.4337 23.6707C10.4098 23.6707 8.76904 25.3114 8.76904 27.3354C8.76904 29.3593 10.4098 31 12.4337 31Z" fill="#FFB800"/>
<path d="M23.1285 23.6708C21.1046 23.6708 19.4639 25.3115 19.4639 27.3354C19.4639 29.3593 21.1046 31.0001 23.1285 31.0001C25.1524 31.0001 26.7932 29.3593 26.7932 27.3354C26.7932 25.3115 25.1524 23.6708 23.1285 23.6708Z" fill="#FFB800"/>
<path d="M29.3733 19.9313H10.2648L9.89087 17.7624H25.5965C26.0585 17.7638 26.4742 17.4817 26.6435 17.0519L30.383 7.62853C30.6102 7.05213 30.327 6.40065 29.7506 6.17351C29.6186 6.12143 29.4778 6.09492 29.3359 6.09536H7.94636L7.0489 0.934938C6.95672 0.389287 6.48038 -0.00766293 5.92706 7.88763e-05H1.62671C1.00715 7.88763e-05 0.504883 0.502347 0.504883 1.12191C0.504883 1.74147 1.00715 2.24374 1.62671 2.24374H4.99221L8.20812 21.2401C8.30029 21.7857 8.77663 22.1827 9.32995 22.1749H29.3733C29.9929 22.1749 30.4952 21.6727 30.4952 21.0531C30.4952 20.4335 29.9929 19.9313 29.3733 19.9313Z" fill="#FFB800"/>
</svg>
