<svg width="60" height="60" viewBox="0 0 60 60" fill="none" xmlns="http://www.w3.org/2000/svg">
<path d="M59.7354 41.0271L55.5968 36.8885C55.2437 36.5355 54.6715 36.5355 54.3185 36.8885C53.9655 37.2415 53.9655 37.8139 54.3185 38.1667L54.8949 38.743L41.0009 52.6372L36.0444 47.6807L49.9385 33.7867L51.355 35.2031C51.7081 35.5561 52.2803 35.5561 52.6333 35.2031C52.9863 34.8501 52.9863 34.2778 52.6333 33.9249L50.5827 31.8743C48.9581 30.2084 47.8906 28.3104 46.3868 26.5294C48.1049 24.222 46.2866 20.8437 43.4247 20.9841C43.5193 18.9745 41.8021 17.2481 39.786 17.3435C39.8805 15.3349 38.1568 13.6055 36.1445 13.7039C36.3005 10.3882 32.1562 8.89676 29.9998 11.2915L29.787 11.0787C28.431 9.72278 26.2246 9.72278 24.8687 11.0787C24.1481 11.7993 23.8104 12.76 23.8557 13.7057C21.843 13.6093 20.1189 15.328 20.2142 17.3457C19.4124 17.3076 18.6005 17.5459 17.9327 18.0583C16.7039 17.6249 15.3604 17.7821 14.1705 18.5149C12.7036 19.4185 11.7855 20.9901 11.7631 22.6284L10.7392 30.5529L0.264867 41.0271C-0.0881262 41.3801 -0.0881262 41.9524 0.264867 42.3053L15.4371 57.4776C15.6135 57.6541 15.8449 57.7424 16.0762 57.7424C16.3074 57.7424 16.5388 57.6541 16.7153 57.4776L25.8729 48.3199C26.2259 47.9669 26.2259 47.3946 25.8729 47.0417L24.3344 45.5032C26.0617 43.7761 27.7941 42.9011 29.9999 41.9046C32.1887 42.8935 33.9535 43.7914 35.6654 45.5032L34.1269 47.0417C33.9574 47.2111 33.8622 47.4411 33.8622 47.6808C33.8622 47.9205 33.9574 48.1505 34.1269 48.3199L43.2846 57.4776C43.4611 57.654 43.6925 57.7424 43.9238 57.7424C44.1551 57.7424 44.3865 57.6541 44.563 57.4776L59.7353 42.3054C59.9048 42.136 60 41.906 60 41.6663C60 41.4266 59.9049 41.1965 59.7354 41.0271ZM43.5912 22.7877C44.7614 22.7892 45.594 24.0623 45.1186 25.1344C44.3922 24.3933 43.6531 23.6644 42.9193 22.9306C43.1433 22.8828 43.3672 22.8353 43.5912 22.7877ZM39.9507 19.1472C41.1317 19.1486 41.9524 20.4175 41.4784 21.4932C40.7013 20.7338 39.8231 20.0485 38.8409 19.5738C39.1581 19.2944 39.528 19.1522 39.9507 19.1472ZM15.4398 25.8515L15.227 25.6387C14.5758 24.9875 14.5758 23.9281 15.227 23.2769C15.5526 22.9514 15.9802 22.7886 16.4078 22.7886C16.8354 22.7886 17.2631 22.9514 17.5886 23.2769L17.8013 23.4896L16.6205 24.6705L15.4398 25.8515ZM26.147 12.3569C26.4726 12.0314 26.9002 11.8686 27.3278 11.8686C27.7554 11.8686 28.1831 12.0314 28.5086 12.3569L28.7215 12.5697L26.3597 14.9315L26.1469 14.7187C25.4958 14.0675 25.4958 13.0081 26.147 12.3569ZM22.0179 17.1778C22.0179 16.7318 22.1915 16.3124 22.507 15.997C22.8327 15.6715 23.2603 15.5087 23.6879 15.5087C24.1155 15.5087 24.5432 15.6715 24.8687 15.997L25.0815 16.2098L23.9007 17.3907L22.7198 18.5715L22.5069 18.3586C22.1915 18.0432 22.0179 17.6238 22.0179 17.1778ZM20.0478 19.1486C20.4754 19.1486 20.9032 19.3114 21.2286 19.637L21.4414 19.8498L19.0797 22.2116L18.8668 21.9987C18.2157 21.3476 18.2157 20.2881 18.8668 19.637C19.1926 19.3113 19.6201 19.1486 20.0478 19.1486ZM15.1185 20.0541C15.4639 19.8415 16.0637 19.5686 16.7766 19.6395C16.6213 20.0729 16.5539 20.5309 16.5757 20.9858C15.4145 20.9301 14.2652 21.4829 13.5852 22.4267C13.6787 21.4938 14.2588 20.5836 15.1185 20.0541ZM16.0762 55.5602L2.18229 41.6662L3.82709 40.0214L17.721 53.9154L16.0762 55.5602ZM34.0283 41.7398C33.3908 41.3436 32.7143 41.0092 32.0121 40.7434C32.9122 40.0954 33.6725 39.296 34.4535 38.5152C34.8065 38.1622 34.8065 37.5898 34.4535 37.237C34.1004 36.884 33.5282 36.884 33.1752 37.237C32.0788 38.3333 31.0078 39.3943 29.5979 40.0951C27.1276 41.3303 25.0444 42.2368 23.0565 44.2247L15.3711 36.5394C15.0181 36.1864 14.4458 36.1864 14.0929 36.5394C13.7399 36.8924 13.7399 37.4647 14.0929 37.8176L23.9559 47.6806L18.9995 52.637L5.10529 38.7432L10.0617 33.7868L10.9566 34.6818C11.3096 35.0348 11.8819 35.0348 12.2348 34.6818C12.5878 34.3288 12.5878 33.7564 12.2348 33.4036L11.3399 32.5086L12.2352 31.6133C12.3764 31.472 12.4668 31.288 12.4925 31.09L13.1817 25.7559C13.511 26.5776 14.1893 27.1578 14.7989 27.7672C15.1524 28.1208 15.7329 28.1152 16.0789 27.7691L31.4914 12.3564C32.9975 10.8503 35.3646 13.2078 33.8536 14.7187C33.6771 14.8951 33.5889 15.1265 33.5889 15.3578C33.5889 15.589 33.6771 15.8204 33.8536 15.9969C34.2067 16.3499 34.7789 16.3499 35.1319 15.9969C36.6554 14.4733 39.0166 16.8352 37.4933 18.3583C37.3168 18.5347 37.2286 18.7661 37.2286 18.9974C37.2286 18.7885 30.0482 18.886 29.4675 18.886C25.5325 18.886 24.8792 24.7137 28.7678 25.4726L33.2495 26.8C33.9495 27.007 34.5927 27.3898 35.1097 27.9069L38.8075 31.6046L36.1982 34.2139C35.8451 34.5669 35.8451 35.1391 36.1981 35.4921C36.5511 35.8451 37.1234 35.8451 37.4763 35.4921L40.7248 32.2437C40.8944 32.0743 40.9896 31.8443 40.9896 31.6046C40.9896 31.3649 40.8944 31.135 40.7249 30.9655L36.3881 26.6287C35.6585 25.8991 34.7506 25.3588 33.7628 25.0667L29.2368 23.7262C27.5693 23.2327 27.4129 20.6939 29.4676 20.6939H35.8897C37.6342 20.6939 39.1263 21.6937 40.3184 22.886C40.3184 22.886 44.2387 26.8223 44.5038 27.119C46.0489 28.8372 47.0373 30.885 48.6605 32.508L36.9438 44.2246C36.0333 43.3144 35.1304 42.4243 34.0283 41.7398ZM43.924 55.5602L42.2793 53.9155L56.1732 40.0215L57.818 41.6663L43.924 55.5602Z" fill="#FFB800"/>
<path d="M29.9999 5.9132C30.4992 5.9132 30.9038 5.5085 30.9038 5.00932V3.16144C30.9038 2.66226 30.4992 2.25757 29.9999 2.25757C29.5008 2.25757 29.0961 2.66226 29.0961 3.16144V5.00932C29.0961 5.5085 29.5008 5.9132 29.9999 5.9132Z" fill="#FFB800"/>
<path d="M24.903 6.24736C25.0515 6.58685 25.3832 6.78932 25.7315 6.78932C25.8524 6.78932 25.9753 6.76486 26.0932 6.7134C26.5506 6.51334 26.7592 5.98041 26.5591 5.52305L25.8187 3.83004C25.6186 3.37268 25.0857 3.16394 24.6283 3.36412C24.171 3.56418 23.9624 4.0971 24.1624 4.55446L24.903 6.24736Z" fill="#FFB800"/>
<path d="M21.5572 9.0617C21.7311 9.22247 21.9511 9.30189 22.1706 9.30189C22.4138 9.30189 22.6563 9.20428 22.8345 9.01169C23.1734 8.6452 23.151 8.07335 22.7845 7.73434L21.4277 6.47976C21.0611 6.14074 20.4894 6.16328 20.1504 6.52977C19.8115 6.89626 19.8339 7.46811 20.2004 7.80713L21.5572 9.0617Z" fill="#FFB800"/>
<path d="M33.9067 6.71324C34.0246 6.76482 34.1474 6.78916 34.2684 6.78916C34.6167 6.78916 34.9486 6.5867 35.097 6.2472L35.8375 4.55419C36.0374 4.09682 35.8288 3.5639 35.3715 3.36396C34.9145 3.16415 34.3812 3.37252 34.1811 3.83L33.4407 5.52302C33.2407 5.98026 33.4493 6.51318 33.9067 6.71324Z" fill="#FFB800"/>
<path d="M37.8295 9.30189C38.0489 9.30189 38.269 9.22247 38.4429 9.0617L39.7998 7.80713C40.1663 7.46823 40.1888 6.89638 39.8498 6.52977C39.5108 6.16328 38.939 6.14074 38.5725 6.47976L37.2156 7.73434C36.8491 8.07323 36.8265 8.64508 37.1656 9.01169C37.3438 9.20428 37.5863 9.30189 37.8295 9.30189Z" fill="#FFB800"/>
<path d="M19.2407 48.7653C19.788 48.6359 20.1269 48.0872 19.9975 47.5399C19.8681 46.9925 19.3195 46.6537 18.7721 46.7831C18.2247 46.9124 17.8859 47.4611 18.0153 48.0084C18.1447 48.5558 18.6933 48.8946 19.2407 48.7653Z" fill="#FFB800"/>
</svg>
