<svg width="60" height="60" viewBox="0 0 60 60" fill="none" xmlns="http://www.w3.org/2000/svg">
<g clip-path="url(#clip0)">
<path d="M48.6324 6.51929L32.9943 17.8811L59.1968 36.9185C59.7211 34.701 60 32.3897 60 30.0143C60 20.507 55.5537 12.0196 48.6324 6.51929Z" fill="#FFB800"/>
<path d="M45.5841 4.38769C41.0393 1.61351 35.703 0.0134277 30 0.0134277C23.8709 0.0134277 18.1662 1.86241 13.4115 5.02987L19.3876 23.4208L45.5841 4.38769Z" fill="#FFB800"/>
<path d="M10.4462 7.28101C4.0541 12.7868 0 20.9357 0 30.0142C0 32.8039 0.384141 35.5051 1.0998 38.0696H20.4509L10.4462 7.28101Z" fill="#FFB800"/>
<path d="M2.32228 41.5852C6.70521 52.0299 16.8342 59.4883 28.7322 59.9855L34.7108 41.5852H2.32228Z" fill="#FFB800"/>
<path d="M32.4522 59.9135C44.2468 58.9548 54.1331 51.1445 58.1157 40.4785L42.4622 29.1055L32.4522 59.9135Z" fill="#FFB800"/>
</g>
<defs>
<clipPath id="clip0">
<rect width="60" height="60" fill="white"/>
</clipPath>
</defs>
</svg>
