<svg width="40" height="40" viewBox="0 0 40 40" fill="none" xmlns="http://www.w3.org/2000/svg">
<circle cx="20" cy="20" r="20" fill="#FFB800"/>
<g clip-path="url(#clip0)">
<path d="M30.9795 15.1741C30.9303 14.0582 30.7498 13.2911 30.4913 12.6264C30.2247 11.9209 29.8144 11.2892 29.277 10.764C28.7518 10.2307 28.116 9.81631 27.4186 9.55382C26.75 9.29534 25.9869 9.1149 24.8711 9.0657C23.747 9.01234 23.3901 9 20.5389 9C17.6878 9 17.3309 9.01234 16.211 9.06154C15.0951 9.11073 14.328 9.29133 13.6635 9.54965C12.9577 9.81631 12.326 10.2265 11.8009 10.764C11.2676 11.2892 10.8534 11.925 10.5907 12.6224C10.3322 13.2911 10.1518 14.0541 10.1026 15.1699C10.0492 16.294 10.0369 16.6509 10.0369 19.5021C10.0369 22.3532 10.0492 22.7101 10.0984 23.83C10.1476 24.9459 10.3282 25.713 10.5867 26.3777C10.8534 27.0833 11.2676 27.715 11.8009 28.2401C12.326 28.7734 12.9619 29.1878 13.6593 29.4503C14.328 29.7088 15.091 29.8892 16.2069 29.9384C17.3268 29.9878 17.6838 29.9999 20.5349 29.9999C23.3861 29.9999 23.743 29.9878 24.8629 29.9384C25.9787 29.8892 26.7458 29.7088 27.4104 29.4503C28.8217 28.9046 29.9375 27.7888 30.4832 26.3777C30.7415 25.709 30.9221 24.9459 30.9713 23.83C31.0205 22.7101 31.0328 22.3532 31.0328 19.5021C31.0328 16.6509 31.0287 16.294 30.9795 15.1741ZM29.0884 23.748C29.0432 24.7736 28.8709 25.3274 28.7273 25.6966C28.3745 26.6115 27.6484 27.3376 26.7335 27.6904C26.3643 27.834 25.8065 28.0063 24.7849 28.0513C23.6772 28.1007 23.3451 28.1128 20.5431 28.1128C17.7412 28.1128 17.4048 28.1007 16.3012 28.0513C15.2756 28.0063 14.7218 27.834 14.3525 27.6904C13.8973 27.5222 13.4829 27.2555 13.1465 26.9068C12.7978 26.5663 12.5312 26.1561 12.3629 25.7008C12.2193 25.3316 12.0471 24.7736 12.002 23.7522C11.9527 22.6445 11.9405 22.3122 11.9405 19.5102C11.9405 16.7083 11.9527 16.3719 12.002 15.2684C12.0471 14.2429 12.2193 13.689 12.3629 13.3198C12.5312 12.8644 12.7978 12.4502 13.1507 12.1136C13.4911 11.7649 13.9013 11.4983 14.3567 11.3302C14.7259 11.1866 15.2839 11.0143 16.3053 10.9691C17.413 10.9199 17.7453 10.9076 20.5471 10.9076C23.3532 10.9076 23.6854 10.9199 24.7891 10.9691C25.8146 11.0143 26.3685 11.1866 26.7377 11.3302C27.1929 11.4983 27.6073 11.7649 27.9437 12.1136C28.2924 12.4542 28.5591 12.8644 28.7273 13.3198C28.8709 13.689 29.0432 14.2469 29.0884 15.2684C29.1376 16.3761 29.1499 16.7083 29.1499 19.5102C29.1499 22.3122 29.1376 22.6404 29.0884 23.748Z" fill="white"/>
<path d="M20.5389 14.1074C17.5607 14.1074 15.1443 16.5236 15.1443 19.502C15.1443 22.4804 17.5607 24.8966 20.5389 24.8966C23.5173 24.8966 25.9335 22.4804 25.9335 19.502C25.9335 16.5236 23.5173 14.1074 20.5389 14.1074ZM20.5389 23.0014C18.6068 23.0014 17.0396 21.4343 17.0396 19.502C17.0396 17.5698 18.6068 16.0027 20.5389 16.0027C22.4712 16.0027 24.0383 17.5698 24.0383 19.502C24.0383 21.4343 22.4712 23.0014 20.5389 23.0014Z" fill="white"/>
<path d="M27.4064 13.8942C27.4064 14.5896 26.8425 15.1536 26.1468 15.1536C25.4514 15.1536 24.8875 14.5896 24.8875 13.8942C24.8875 13.1985 25.4514 12.6348 26.1468 12.6348C26.8425 12.6348 27.4064 13.1985 27.4064 13.8942Z" fill="white"/>
</g>
<defs>
<clipPath id="clip0">
<rect width="21" height="21" fill="white" transform="translate(10 9)"/>
</clipPath>
</defs>
</svg>
