<svg width="16" height="22" viewBox="0 0 16 22" fill="none" xmlns="http://www.w3.org/2000/svg">
<path d="M8 0C3.95647 0 0.666656 3.28982 0.666656 7.33335C0.666656 8.54722 0.970145 9.75077 1.54709 10.8183L7.59898 21.7637C7.67954 21.9096 7.83307 22 8 22C8.16694 22 8.32046 21.9096 8.40103 21.7637L14.4552 10.8147C15.0299 9.75077 15.3334 8.54717 15.3334 7.3333C15.3334 3.28982 12.0435 0 8 0ZM8 11C5.97824 11 4.33335 9.35511 4.33335 7.33335C4.33335 5.31158 5.97824 3.6667 8 3.6667C10.0218 3.6667 11.6667 5.31158 11.6667 7.33335C11.6667 9.35511 10.0218 11 8 11Z" fill="#FFB800"/>
</svg>
