<svg width="60" height="60" viewBox="0 0 60 60" fill="none" xmlns="http://www.w3.org/2000/svg">
<path d="M59.9158 33.3967C59.9156 33.3964 59.9156 33.3962 59.9155 33.396L48.5873 4.95169C48.3468 4.34733 47.6618 4.05228 47.0574 4.29271C47.057 4.29285 47.0565 4.293 47.0561 4.29329L1.0989 22.593C0.911482 22.674 0.748944 22.8033 0.627776 22.9676C0.245575 23.1662 0.00412236 23.5593 0 23.9899V54.6131C0 55.2636 0.527367 55.7909 1.17782 55.7909H50.6461C51.2965 55.7909 51.8239 55.2636 51.8239 54.6131V37.8881L59.2583 34.9271C59.8625 34.6861 60.1568 34.0009 59.9158 33.3967ZM49.4683 53.4353H2.35563V25.1677H49.4683V53.4353ZM19.6519 22.818L39.3732 14.9596C41.1333 16.8097 43.5721 17.8611 46.1256 17.8712L48.0926 22.818H19.6519ZM51.8239 35.3582V23.9899C51.8239 23.3395 51.2965 22.8121 50.6461 22.8121H50.6272L48.1315 16.5438C48.1038 16.4915 48.0715 16.4417 48.0349 16.3954C47.9086 15.8281 47.3832 15.441 46.8041 15.4884C44.4281 15.705 42.1038 14.7042 40.6288 12.8289C40.2617 12.3759 39.6166 12.2633 39.1176 12.5651C39.0617 12.5717 39.0062 12.582 38.9516 12.5957L14.8746 22.1831C14.5833 22.2974 14.3502 22.524 14.228 22.8121H6.91614L46.8347 6.91747L57.2925 33.1769L51.8239 35.3582Z" fill="#FFB800"/>
<path d="M5.55214 45.484C7.83887 46.1599 9.62827 47.9471 10.307 50.2329C10.4558 50.7319 10.9147 51.0737 11.4353 51.0739C11.4964 51.07 11.5571 51.0609 11.6167 51.0468C11.6696 51.0618 11.7236 51.0728 11.7781 51.0798H40.0457C40.0942 51.0734 40.1422 51.0636 40.1894 51.0503C40.7778 51.1934 41.3708 50.8326 41.5141 50.2441C41.5145 50.2419 41.5151 50.2398 41.5156 50.2376C42.1925 47.9494 43.9822 46.1597 46.2704 45.4828C46.8253 45.3132 47.1701 44.7602 47.0784 44.1872C47.0942 44.1301 47.1055 44.0717 47.1126 44.0129V34.5903C47.1056 34.5313 47.0939 34.473 47.0772 34.416C47.1695 33.8429 46.8246 33.2896 46.2692 33.1204C43.981 32.4436 42.1918 30.6532 41.5168 28.3644C41.3463 27.8057 40.7878 27.46 40.2117 27.5564C40.1573 27.5413 40.1018 27.5302 40.0457 27.5234H11.7781C11.7187 27.5305 11.66 27.5423 11.6026 27.5588C11.0297 27.4675 10.477 27.8121 10.307 28.3668C9.62959 30.6545 7.84005 32.4436 5.55214 33.1204C4.99724 33.29 4.65244 33.843 4.74416 34.416C4.72885 34.4733 4.71781 34.5314 4.71118 34.5903V44.0129C4.71795 44.0682 4.729 44.123 4.74416 44.1766C4.64758 44.7533 4.99312 45.3124 5.55214 45.484ZM7.06681 35.0685C9.43187 34.1186 11.3064 32.2441 12.2563 29.8791H39.5663C40.5166 32.2441 42.3916 34.1186 44.7569 35.0685V43.5347C42.3926 44.4856 40.5184 46.3598 39.5675 48.7241H12.2563C11.3053 46.3598 9.43113 44.4856 7.06681 43.5347V35.0685Z" fill="#FFB800"/>
<path d="M25.9119 46.3684C29.8149 46.3684 32.9788 43.2045 32.9788 39.3015C32.9788 35.3985 29.8149 32.2346 25.9119 32.2346C22.0089 32.2346 18.845 35.3985 18.845 39.3015C18.8489 43.2029 22.0106 46.3646 25.9119 46.3684ZM25.9119 34.5903C28.5139 34.5903 30.6232 36.6996 30.6232 39.3015C30.6232 41.9035 28.5139 44.0128 25.9119 44.0128C23.31 44.0128 21.2007 41.9035 21.2007 39.3015C21.2007 36.6996 23.31 34.5903 25.9119 34.5903Z" fill="#FFB800"/>
<path d="M12.956 41.0683C13.9317 41.0683 14.7227 40.2773 14.7227 39.3016C14.7227 38.326 13.9317 37.5349 12.956 37.5349C11.9803 37.5349 11.1893 38.326 11.1893 39.3016C11.1893 40.2774 11.9803 41.0683 12.956 41.0683ZM12.956 38.7127C13.2812 38.7127 13.5449 38.9764 13.5449 39.3016C13.5449 39.6269 13.2812 39.8905 12.956 39.8905C12.6308 39.8905 12.3671 39.6269 12.3671 39.3016C12.3671 38.9764 12.6308 38.7127 12.956 38.7127Z" fill="#FFB800"/>
<path d="M38.8679 41.0683C39.8436 41.0683 40.6346 40.2773 40.6346 39.3016C40.6346 38.326 39.8436 37.5349 38.8679 37.5349C37.8922 37.5349 37.1012 38.326 37.1012 39.3016C37.1012 40.2774 37.8922 41.0683 38.8679 41.0683ZM38.8679 38.7127C39.1931 38.7127 39.4568 38.9764 39.4568 39.3016C39.4568 39.6269 39.1931 39.8905 38.8679 39.8905C38.5427 39.8905 38.279 39.6269 38.279 39.3016C38.279 38.9764 38.5427 38.7127 38.8679 38.7127Z" fill="#FFB800"/>
</svg>
