<svg width="131" height="131" viewBox="0 0 131 131" fill="none" xmlns="http://www.w3.org/2000/svg">
<path d="M129.088 95.962H125.255V28.4439C125.255 24.1134 121.732 20.5903 117.401 20.5903H13.5986C9.26798 20.5903 5.7448 24.1134 5.7448 28.4439V95.9622H1.91127C0.855848 95.9622 0 96.8178 0 97.8735V100.162C0 105.813 4.59727 110.41 10.2482 110.41H94.1671C95.2225 110.41 96.0783 109.554 96.0783 108.499C96.0783 107.443 95.2227 106.588 94.1671 106.588H10.2482C6.70478 106.588 3.82228 103.705 3.82228 100.162V99.7845H49.447V103.186C49.447 104.242 50.3026 105.097 51.3583 105.097H79.6417C80.6971 105.097 81.553 104.242 81.553 103.186V99.7845H127.178V100.162C127.178 103.705 124.295 106.588 120.752 106.588H107.673C106.617 106.588 105.762 107.443 105.762 108.499C105.762 109.554 106.617 110.41 107.673 110.41H120.752C126.403 110.41 131 105.812 131 100.162V97.8735C131 96.8175 130.144 95.962 129.088 95.962ZM77.7304 101.275H53.2693V99.7842H77.7304V101.275ZM121.433 95.8008H9.56733V28.4439C9.56733 26.221 11.3757 24.4125 13.5989 24.4125H117.401C119.624 24.4125 121.433 26.221 121.433 28.4439V95.8008Z" fill="#FFB800"/>
<path d="M112.656 28.046H18.3432C15.2264 28.046 12.6906 30.5818 12.6906 33.6989V54.0333C12.6906 55.089 13.5461 55.9446 14.6018 55.9446C15.6575 55.9446 16.5131 55.089 16.5131 54.0333V33.6989C16.5131 32.6895 17.3341 31.8685 18.3432 31.8685H112.656C113.665 31.8685 114.486 32.6898 114.486 33.6989V88.5829H16.5131V67.7934C16.5131 66.7377 15.6575 65.8821 14.6018 65.8821C13.5461 65.8821 12.6906 66.7377 12.6906 67.7934V90.4939C12.6906 91.5496 13.5461 92.4052 14.6018 92.4052H116.398C117.453 92.4052 118.309 91.5496 118.309 90.4939V33.6986C118.309 30.5815 115.773 28.046 112.656 28.046Z" fill="#FFB800"/>
</svg>
