<svg width="84" height="84" viewBox="0 0 84 84" fill="none" xmlns="http://www.w3.org/2000/svg">
<path d="M79.0762 18.046V14.6555C79.0762 13.5247 78.1564 12.6048 77.0255 12.6048H52.9369C51.8061 12.6048 50.8862 13.5247 50.8862 14.6555V18.046C50.8862 19.1768 51.8061 20.0967 52.9369 20.0967H77.0255C78.1564 20.0967 79.0762 19.1768 79.0762 18.046ZM76.6154 17.6359H53.347V15.0656H76.6154V17.6359Z" fill="#FFB800"/>
<path d="M59.2393 65.9783C60.5509 65.9783 61.618 64.9111 61.618 63.5995V29.5298C61.618 28.2182 60.5509 27.151 59.2393 27.151H6.97428C5.66266 27.151 4.59549 28.2182 4.59549 29.5298V63.5995C4.59549 64.9111 5.66266 65.9783 6.97428 65.9783H59.2393ZM7.05631 29.6118H59.1572V63.5174H7.05631V29.6118Z" fill="#FFB800"/>
<path d="M70.4053 49.9546H76.6394C77.7702 49.9546 78.69 49.0347 78.69 47.9039V44.6228C78.69 43.492 77.7702 42.5721 76.6394 42.5721H70.4053C69.2745 42.5721 68.3546 43.492 68.3546 44.6228V47.9039C68.3546 49.0347 69.2745 49.9546 70.4053 49.9546ZM70.8154 45.033H76.2292V47.4938H70.8154V45.033Z" fill="#FFB800"/>
<path d="M80.9632 0H48.9998C47.3263 0 45.9648 1.36149 45.9648 3.03501V22.5575H3.52946C1.58459 22.5575 0.00228882 24.1398 0.00228882 26.0847V32.3607C0.00228882 33.0404 0.55302 33.5911 1.2327 33.5911C1.91238 33.5911 2.46311 33.0404 2.46311 32.3607V26.0847C2.46311 25.4967 2.94149 25.0183 3.52946 25.0183H62.6847C63.2727 25.0183 63.7511 25.4967 63.7511 26.0847V67.0446C63.7511 67.6326 63.2727 68.111 62.6847 68.111C59.7478 68.111 5.69416 68.111 3.52946 68.111C2.94149 68.111 2.46311 67.6326 2.46311 67.0446V38.1026C2.46311 37.423 1.91238 36.8722 1.2327 36.8722C0.55302 36.8722 0.00228882 37.423 0.00228882 38.1026V67.0446C0.00228882 68.9895 1.58459 70.5718 3.52946 70.5718H26.9551V74.2893H18.2602C16.9486 74.2893 15.8815 75.3565 15.8815 76.6681V81.6171C15.8815 82.9287 16.9486 83.9959 18.2602 83.9959C50.034 83.9959 48.0812 84.0217 48.4499 83.9431C48.8539 84.0185 47.9026 83.9959 62.7336 83.9959C63.4133 83.9959 63.964 83.4452 63.964 82.7655C63.964 82.0858 63.4133 81.5351 62.7336 81.5351H50.3329C50.3329 75.4544 50.3337 76.8913 50.3316 76.6412C50.3188 75.5071 49.4988 74.5529 48.4277 74.3369C48.4271 74.3367 48.4264 74.3365 48.4258 74.3364V70.572H62.685C64.6299 70.572 66.2122 68.9897 66.2122 67.0448V39.8925H81.5375V80.9609C81.5375 81.2775 81.28 81.5351 80.9633 81.5351H68.4757C67.796 81.5351 67.2453 82.0858 67.2453 82.7655C67.2453 83.4452 67.796 83.9959 68.4757 83.9959H80.9633C82.6369 83.9959 83.9983 82.6344 83.9983 80.9609C83.9983 80.1823 83.9983 3.66842 83.9983 3.03501C83.9982 1.36149 82.6367 0 80.9632 0ZM48.9998 2.46082H80.9632C81.2798 2.46082 81.5374 2.71838 81.5374 3.03501V7.68316H48.4256V3.03501C48.4256 2.71838 48.6833 2.46082 48.9998 2.46082ZM48.4258 10.144H81.5374V22.5575H62.6849H62.6847H48.4258V10.144ZM66.2121 29.9399H76.6157V32.51H66.2121V29.9399ZM39.2592 74.2893V70.5718H45.9648V74.2893H39.2592ZM29.4159 70.5718H36.7984V74.2893H29.4159V70.5718ZM18.3423 76.7501H47.1921C47.1932 76.7501 47.1942 76.7503 47.1952 76.7503H47.8719V81.5351H18.3423V76.7501ZM66.2121 37.4317V34.9708H77.0259C78.1567 34.9708 79.0766 34.051 79.0766 32.9202V29.5298C79.0766 28.399 78.1567 27.4791 77.0259 27.4791H66.2121C66.2121 26.2966 66.2687 25.7139 66.0473 25.0183H81.5374V37.4317H66.2121Z" fill="#FFB800"/>
</svg>
