<svg width="25" height="25" viewBox="0 0 25 25" fill="none" xmlns="http://www.w3.org/2000/svg">
<path d="M24.408 21.3829L18.6603 15.6348C19.6369 14.0801 20.2037 12.2425 20.2037 10.2704C20.2037 4.69111 15.6807 0.168793 10.1016 0.168793C4.52253 0.168793 0 4.69111 0 10.2704C0 15.8499 4.52232 20.3718 10.1016 20.3718C12.2478 20.3718 14.2356 19.7008 15.8714 18.5607L21.5506 24.2404C21.9453 24.6346 22.4626 24.831 22.9793 24.831C23.4966 24.831 24.0133 24.6346 24.4086 24.2404C25.1972 23.451 25.1972 22.1721 24.408 21.3829ZM10.1016 17.099C6.33066 17.099 3.27341 14.042 3.27341 10.2708C3.27341 6.49966 6.33066 3.44241 10.1016 3.44241C13.8728 3.44241 16.9298 6.49966 16.9298 10.2708C16.9298 14.042 13.8728 17.099 10.1016 17.099Z" fill="white"/>
</svg>
