<svg width="60" height="60" viewBox="0 0 60 60" fill="none" xmlns="http://www.w3.org/2000/svg">
<g clip-path="url(#clip0)">
<path d="M54.6553 10.3604C46.4001 8.09848 38.0963 4.57642 30.6417 0.175097C30.2457 -0.0586913 29.7543 -0.0586913 29.3585 0.175097C21.6888 4.70286 13.8338 8.03438 5.34412 10.3604C4.79568 10.5105 4.41553 11.0091 4.41553 11.5778V24.4738C4.41553 37.7538 10.542 46.5442 15.6816 51.5799C21.2147 57.0016 27.66 59.9998 30.0001 59.9998C32.34 59.9998 38.7853 57.0016 44.3184 51.5799C49.4579 46.5443 55.5839 37.7539 55.5839 24.4738V11.5777C55.5839 11.0091 55.2038 10.5105 54.6553 10.3604ZM53.0597 24.4736C53.0597 36.8771 47.3456 45.0796 42.5517 49.7767C37.1105 55.1082 31.293 57.4753 30.0001 57.4753C28.7072 57.4753 22.8893 55.1082 17.448 49.7767C12.6543 45.0795 6.93986 36.8771 6.93986 24.4736V12.5358C15.0584 10.2307 22.619 7.0138 30.0003 2.72439C37.1973 6.90001 45.1352 10.2769 53.0597 12.5353V24.4736Z" fill="#FFB800"/>
<path d="M18.8128 12.3949C18.5573 11.7462 17.8246 11.4276 17.1758 11.6832C14.9211 12.5716 12.6069 13.3893 10.2975 14.1138C9.77121 14.279 9.41309 14.7665 9.41309 15.318V20.1919C9.41309 20.889 9.97828 21.454 10.6752 21.454C11.3721 21.454 11.9373 20.889 11.9373 20.1919V16.2404C14.0091 15.5701 16.0786 14.8286 18.1011 14.0316C18.7498 13.7763 19.0684 13.0435 18.8128 12.3949Z" fill="#FFB800"/>
<path d="M21.2103 12.6341C21.3796 12.6341 21.5516 12.6 21.7164 12.5281L21.7396 12.518C22.3782 12.2382 22.6658 11.4948 22.3859 10.8565C22.1058 10.218 21.3583 9.9291 20.7205 10.2087L20.7001 10.2175C20.0612 10.4965 19.7727 11.2393 20.0517 11.8779C20.2587 12.3521 20.7234 12.6341 21.2103 12.6341Z" fill="#FFB800"/>
<path d="M45.0375 40.6971C44.4543 40.3159 43.6722 40.4798 43.2905 41.0633C42.2505 42.6552 41.0303 44.1796 39.6634 45.5937C38.5394 46.7564 37.3213 47.8401 36.0432 48.8146C35.489 49.2371 35.3824 50.0291 35.8048 50.5835C36.0534 50.9092 36.4292 51.0805 36.8093 51.0805C37.0763 51.0805 37.3452 50.9962 37.5738 50.8219C38.9525 49.7706 40.2661 48.6019 41.4781 47.3482C42.9559 45.8196 44.2766 44.1696 45.4037 42.444C45.7852 41.8604 45.621 41.0783 45.0375 40.6971Z" fill="#FFB800"/>
<path d="M33.1122 50.7939L33.0397 50.8366C32.4366 51.1859 32.2304 51.958 32.5797 52.5611C32.8137 52.9654 33.2373 53.1911 33.6731 53.1911C33.8876 53.1911 34.1053 53.1364 34.3042 53.021L34.3877 52.9719C34.9893 52.6196 35.1913 51.8465 34.839 51.245C34.4865 50.6437 33.7133 50.442 33.1122 50.7939Z" fill="#FFB800"/>
<path d="M21.3971 27.424C20.6221 26.6489 19.5915 26.2223 18.4953 26.2223C17.3991 26.2223 16.3683 26.649 15.593 27.424C13.9931 29.0243 13.9931 31.6282 15.593 33.2284L23.0457 40.6808C23.8208 41.4556 24.8514 41.8823 25.9477 41.8823C27.044 41.8823 28.0747 41.4556 28.8498 40.6805L44.4077 25.1225C46.0076 23.5219 46.0076 20.9183 44.4075 19.3186C43.6324 18.5435 42.6018 18.1169 41.5054 18.1169C40.4091 18.1169 39.3784 18.5436 38.6032 19.3186L25.9476 31.9742L21.3971 27.424ZM40.3882 21.1036C40.6865 20.8053 41.0834 20.6412 41.5055 20.6412C41.9278 20.6412 42.3244 20.8053 42.6229 21.1036C43.2387 21.7194 43.2387 22.7218 42.6226 23.3379L27.065 38.8957C26.7667 39.1939 26.3698 39.3581 25.9477 39.3581C25.5256 39.3581 25.1287 39.1939 24.8303 38.8957L17.3779 31.4435C16.7619 30.8274 16.7619 29.825 17.3777 29.2092C17.676 28.9109 18.073 28.7465 18.4952 28.7465C18.9174 28.7465 19.3141 28.9107 19.6123 29.209L25.0551 34.6518C25.2919 34.8884 25.6128 35.0214 25.9476 35.0214C26.2824 35.0214 26.6032 34.8885 26.8398 34.6518L40.3882 21.1036Z" fill="#FFB800"/>
</g>
<defs>
<clipPath id="clip0">
<rect width="60" height="60" fill="white"/>
</clipPath>
</defs>
</svg>
