<svg width="24" height="24" viewBox="0 0 24 24" fill="none" xmlns="http://www.w3.org/2000/svg">
<path d="M23.949 18.5956C23.8812 18.3911 23.4493 18.0898 22.6537 17.6924C22.4382 17.5671 22.1311 17.3969 21.7337 17.181C21.336 16.965 20.9749 16.7661 20.6513 16.5842C20.327 16.4024 20.0232 16.2263 19.7393 16.0561C19.6939 16.022 19.5519 15.9227 19.3133 15.7576C19.0744 15.5929 18.873 15.4707 18.7079 15.391C18.5432 15.3118 18.3811 15.2719 18.222 15.2719C17.9948 15.2719 17.711 15.4339 17.3702 15.7576C17.0294 16.0816 16.7168 16.4336 16.4329 16.8147C16.1489 17.1955 15.8477 17.5475 15.5298 17.8714C15.2115 18.1954 14.95 18.3572 14.7457 18.3572C14.6431 18.3572 14.5152 18.3286 14.362 18.2722C14.2088 18.2154 14.0922 18.1668 14.0122 18.1276C13.9329 18.0875 13.7969 18.0082 13.6036 17.8885C13.4099 17.7692 13.3022 17.7038 13.2795 17.6924C11.7228 16.8286 10.3877 15.8399 9.27393 14.7266C8.16055 13.6127 7.17177 12.2777 6.30818 10.7208C6.29684 10.6981 6.23135 10.5901 6.11212 10.397C5.99272 10.2038 5.91314 10.0676 5.87337 9.98781C5.83361 9.90835 5.78532 9.79181 5.7286 9.63844C5.67188 9.48506 5.6434 9.3573 5.6434 9.25491C5.6434 9.05049 5.80538 8.789 6.12926 8.47079C6.45308 8.15276 6.80544 7.8515 7.18598 7.56762C7.56682 7.28374 7.91882 6.97114 8.24276 6.63036C8.56658 6.2894 8.72849 6.00546 8.72849 5.77824C8.72849 5.61925 8.68873 5.45716 8.60927 5.29244C8.52975 5.12737 8.4076 4.92594 8.24276 4.68719C8.07786 4.44856 7.97846 4.30665 7.94431 4.26098C7.77404 3.97709 7.5981 3.67315 7.41607 3.34927C7.23404 3.02545 7.03535 2.66449 6.81935 2.26682C6.60353 1.86932 6.4332 1.5624 6.30806 1.34651C5.91057 0.551227 5.60949 0.119224 5.4049 0.0512838C5.32531 0.0171941 5.20591 0 5.04698 0C4.74 0 4.33952 0.0567167 3.84525 0.170508C3.3508 0.284121 2.96172 0.403286 2.6776 0.52848C2.10942 0.766989 1.5072 1.46013 0.870784 2.60766C0.291259 3.6756 0.00152588 4.73262 0.00152588 5.77794C0.00152588 6.08451 0.0214066 6.38278 0.061168 6.67281C0.100929 6.96254 0.171974 7.28929 0.274363 7.65299C0.376572 8.01658 0.459021 8.28667 0.521349 8.46255C0.583738 8.63855 0.700216 8.95384 0.870724 9.40852C1.04099 9.86309 1.14338 10.1414 1.17747 10.2436C1.57515 11.3573 2.04673 12.3515 2.59211 13.2266C3.48942 14.681 4.71397 16.1841 6.26502 17.7353C7.81613 19.2864 9.31894 20.5108 10.7735 21.4085C11.6484 21.9538 12.643 22.4254 13.7565 22.8233C13.8588 22.8573 14.1371 22.9594 14.5915 23.1303C15.0461 23.3007 15.3615 23.4171 15.5375 23.4796C15.7135 23.5422 15.9837 23.6247 16.347 23.7271C16.711 23.8295 17.0375 23.9005 17.3272 23.9406C17.6171 23.9798 17.9155 24.0001 18.2221 24.0001C19.2673 24.0001 20.3244 23.7101 21.3926 23.1307C22.54 22.4945 23.2329 21.8922 23.4715 21.3236C23.597 21.0397 23.7159 20.6506 23.8295 20.1561C23.9435 19.6619 24.0001 19.2615 24.0001 18.9545C24.0004 18.795 23.9833 18.6759 23.949 18.5956Z" fill="#FFB800"/>
</svg>
