<svg width="100" height="100" viewBox="0 0 100 100" fill="none" xmlns="http://www.w3.org/2000/svg">
<path d="M93.3594 24.6094H47.834C46.2906 22.7097 44.1002 21.3577 41.6016 20.887V17.6826C41.6016 13.7482 38.4003 10.5469 34.4658 10.5469H13.5811C9.64661 10.5469 6.44531 13.7482 6.44531 17.6826V47.2656C6.44531 48.3444 7.31964 49.2188 8.39844 49.2188C9.47723 49.2188 10.3516 48.3444 10.3516 47.2656V17.6826C10.3516 15.9019 11.8004 14.4531 13.5811 14.4531H34.4658C36.2465 14.4531 37.6953 15.9019 37.6953 17.6826V74.6094H10.3516V65.625C10.3516 64.5462 9.47723 63.6719 8.39844 63.6719C7.31964 63.6719 6.44531 64.5462 6.44531 65.625V74.6094H1.95312C0.874328 74.6094 0 75.4837 0 76.5625V87.5C0 88.5788 0.874328 89.4531 1.95312 89.4531H45.7031C46.7819 89.4531 47.6562 88.5788 47.6562 87.5V76.5625C47.6562 75.4837 46.7819 74.6094 45.7031 74.6094H41.6016V47.9141L60.7529 81.0852C61.6402 82.6218 63.0722 83.7204 64.785 84.1789C65.3572 84.3323 65.9378 84.4086 66.5146 84.4086C67.6651 84.4086 68.8011 84.1064 69.8242 83.5159C71.36 82.6294 72.4594 81.1974 72.9187 79.4838C73.3772 77.7702 73.1415 75.9804 72.2549 74.4446L57.7911 49.3919L82.843 63.8565C83.8661 64.447 85.0021 64.7491 86.1526 64.7491C86.7294 64.7491 87.31 64.6729 87.8822 64.5195C89.5958 64.0602 91.0278 62.9616 91.9144 61.4258C92.8017 59.8892 93.0367 58.1001 92.5774 56.3866C92.1188 54.673 91.0202 53.241 89.4836 52.3544L64.4318 37.8906H93.3594C97.0207 37.8906 100 34.9113 100 31.25C100 27.5887 97.0207 24.6094 93.3594 24.6094ZM43.75 85.5469H3.90625V78.5156H43.75V85.5469ZM46.2891 31.25C46.2891 34.2323 44.313 36.7615 41.6016 37.5969V24.9031C44.313 25.7385 46.2891 28.2677 46.2891 31.25ZM68.8721 76.3977C69.2368 77.0302 69.3344 77.7672 69.1452 78.4729C68.956 79.1779 68.5036 79.7676 67.8711 80.1331C67.2386 80.4977 66.5016 80.5954 65.7959 80.4062C65.0909 80.217 64.5012 79.7646 64.1357 79.1321L42.3729 41.4383C42.7307 41.3422 43.0801 41.2277 43.4219 41.0965L51.0246 45.4865L68.8721 76.3977ZM87.5305 55.7373C88.163 56.1028 88.6154 56.6925 88.8046 57.3982C88.9938 58.1032 88.8969 58.8402 88.5315 59.4727C88.166 60.1051 87.5763 60.5576 86.8713 60.7468C86.1664 60.936 85.4286 60.8383 84.7961 60.4736L47.0985 38.7085C47.3579 38.4491 47.6028 38.176 47.834 37.8906H56.6193L87.5305 55.7373ZM93.3594 33.9844H49.8337C50.0687 33.1116 50.1953 32.196 50.1953 31.25C50.1953 30.304 50.0687 29.3884 49.8337 28.5156H93.3594C94.8669 28.5156 96.0938 29.7424 96.0938 31.25C96.0938 32.7576 94.8669 33.9844 93.3594 33.9844Z" fill="#FFB800"/>
<path d="M16.2109 33.9844H31.8359C32.9147 33.9844 33.7891 33.11 33.7891 32.0312V22.6562C33.7891 21.5775 32.9147 20.7031 31.8359 20.7031H16.2109C15.1321 20.7031 14.2578 21.5775 14.2578 22.6562V32.0312C14.2578 33.11 15.1321 33.9844 16.2109 33.9844ZM18.1641 24.6094H29.8828V30.0781H18.1641V24.6094Z" fill="#FFB800"/>
<path d="M16.2109 41.4314H31.8359C32.9147 41.4314 33.7891 40.5563 33.7891 39.4783C33.7891 38.3995 32.9147 37.5251 31.8359 37.5251H16.2109C15.1321 37.5251 14.2578 38.3995 14.2578 39.4783C14.2578 40.5563 15.1321 41.4314 16.2109 41.4314Z" fill="#FFB800"/>
<path d="M8.39844 58.0391C8.9119 58.0391 9.4162 57.83 9.77936 57.4669C10.1425 57.1037 10.3516 56.5994 10.3516 56.0859C10.3516 55.5725 10.1425 55.0682 9.77936 54.705C9.4162 54.3419 8.9119 54.1328 8.39844 54.1328C7.88498 54.1328 7.38068 54.3419 7.01752 54.705C6.65436 55.0682 6.44531 55.5725 6.44531 56.0859C6.44531 56.5994 6.65436 57.1037 7.01752 57.4669C7.38068 57.83 7.88498 58.0391 8.39844 58.0391Z" fill="#FFB800"/>
</svg>
