<svg width="84" height="104" viewBox="0 0 84 104" fill="none" xmlns="http://www.w3.org/2000/svg">
<path d="M20.589 26.9632C20.187 27.7024 20.4602 28.6272 21.1996 29.0294C21.9383 29.4312 22.8636 29.1584 23.2658 28.4188C27.6756 20.3107 36.1431 15.2736 45.3635 15.2736C59.2242 15.2736 70.5007 26.55 70.5007 40.4107C70.5007 58.8459 51.2483 70.8445 34.7888 63.2188L39.2422 53.3849C39.7565 52.2454 39.5361 50.9206 38.6801 50.01C37.518 48.774 35.5672 48.714 34.3314 49.8761L26.6041 57.1417C22.36 52.3953 20.2262 46.4589 20.2262 40.4109C20.2262 38.1546 20.5268 35.9135 21.1197 33.7506C21.3422 32.9393 20.8646 32.1012 20.0531 31.8786C19.2421 31.6568 18.4036 32.1337 18.1811 32.9452C17.5163 35.3703 17.1791 37.8824 17.1791 40.4109C17.1791 40.9949 17.1988 41.5758 17.234 42.1537H14.2679C12.164 42.1537 10.452 43.8654 10.452 45.9694V80.156C10.452 82.2599 12.164 83.9716 14.2679 83.9716H37.6685V91.8033C37.6685 93.9073 39.3803 95.6192 41.4842 95.6192H65.1217C67.2257 95.6192 68.9376 93.9073 68.9376 91.8033V55.839C71.8502 51.4036 73.5475 46.102 73.5475 40.4107C73.5475 24.87 60.9042 12.2267 45.3635 12.2267C35.0259 12.2267 25.5328 17.8734 20.589 26.9632ZM36.4185 52.0961C36.4305 52.0845 36.4492 52.0851 36.4604 52.0971C36.4736 52.1111 36.4658 52.1298 36.4658 52.1298L29.338 67.8691C28.5531 69.6026 26.5038 70.3737 24.7709 69.5892C22.5737 68.5941 22.0107 65.662 23.8333 63.9293L36.4185 52.0961ZM13.4993 80.1557V45.9694C13.4993 45.5455 13.8442 45.2006 14.2683 45.2006H17.5831C18.4704 50.4126 20.8035 55.2486 24.3834 59.2298L21.7435 61.712C21.7417 61.7136 21.7401 61.7152 21.7385 61.7169C18.3402 64.9419 19.3517 70.4801 23.5142 72.3647C26.7703 73.8396 30.6323 72.3968 32.1137 69.1263L33.5321 65.9943C36.9261 67.5626 40.6368 68.4464 44.3934 68.5766V80.156C44.3934 80.5799 44.0485 80.9248 43.6244 80.9248H14.2683C13.8442 80.9246 13.4993 80.5797 13.4993 80.1557ZM65.8907 91.8031C65.8907 92.2273 65.5458 92.5722 65.1217 92.5722H41.4847C41.0607 92.5722 40.7158 92.2273 40.7158 91.8031V83.9715H43.6242C45.7281 83.9715 47.4401 82.2597 47.4401 80.1557V68.5181C54.6927 67.9873 61.1908 64.6998 65.8905 59.7019V91.8031H65.8907Z" fill="#FFB800"/>
<path d="M45.3636 49.0117C50.1061 49.0117 53.9645 45.1533 53.9645 40.4107C53.9645 35.6682 50.1061 31.8098 45.3636 31.8098C40.621 31.8098 36.7626 35.6682 36.7626 40.4107C36.7626 45.1533 40.621 49.0117 45.3636 49.0117ZM40.0238 41.9342H40.2777C42.2421 41.9342 43.8401 43.5322 43.8401 45.4966V45.7505C42.0006 45.225 40.5493 43.7737 40.0238 41.9342ZM45.3636 39.5408C45.626 39.857 45.9175 40.1483 46.2335 40.4107C45.9175 40.6732 45.626 40.9647 45.3636 41.2807C45.1011 40.9645 44.8096 40.6732 44.4936 40.4107C44.8098 40.1483 45.1011 39.857 45.3636 39.5408ZM46.887 45.7507V45.4968C46.887 43.5324 48.485 41.9344 50.4494 41.9344H50.7033C50.1778 43.7737 48.7265 45.225 46.887 45.7507ZM50.7035 38.8873H50.4496C48.4852 38.8873 46.8872 37.2893 46.8872 35.3249V35.071C48.7265 35.5965 50.1778 37.048 50.7035 38.8873ZM43.8401 35.071V35.3249C43.8401 37.2893 42.2421 38.8873 40.2777 38.8873H40.0238C40.5493 37.048 42.0006 35.5965 43.8401 35.071Z" fill="#FFB800"/>
<path d="M13.3473 30.9595C14.7962 30.9595 16.0812 30.0993 16.6213 28.7678C19.1291 22.5836 23.6685 17.2774 29.4042 13.8263C30.4679 13.1861 31.1287 12.022 31.1287 10.7882C31.1287 8.83553 29.5403 7.24689 27.5874 7.24689H10.9572C9.00454 7.24689 7.41589 8.83533 7.41589 10.7882V27.4184C7.41589 29.3709 9.00433 30.9595 10.9572 30.9595H13.3473ZM10.463 27.4184V10.7882C10.463 10.5156 10.6848 10.2938 10.9574 10.2938H27.5876C27.8602 10.2938 28.082 10.5156 28.082 10.7882C28.082 10.962 27.989 11.1221 27.8334 11.2155C21.5363 15.0042 16.5518 20.8311 13.7979 27.6224C13.7276 27.7958 13.5466 27.9124 13.3473 27.9124H10.9572C10.6848 27.9126 10.463 27.691 10.463 27.4184Z" fill="#FFB800"/>
<path d="M39.1924 74.4451H32.7113C31.8698 74.4451 31.1879 75.127 31.1879 75.9685C31.1879 76.8101 31.8698 77.4919 32.7113 77.4919H39.1924C40.034 77.4919 40.7159 76.8101 40.7159 75.9685C40.7159 75.127 40.034 74.4451 39.1924 74.4451Z" fill="#FFB800"/>
<path d="M59.8191 71.7892H53.3033C52.4617 71.7892 51.7798 72.4711 51.7798 73.3127C51.7798 74.1542 52.4617 74.8361 53.3033 74.8361H59.8191C60.6607 74.8361 61.3426 74.1542 61.3426 73.3127C61.3426 72.4711 60.6607 71.7892 59.8191 71.7892Z" fill="#FFB800"/>
<path d="M59.8191 78.0306H53.3033C52.4617 78.0306 51.7798 78.7125 51.7798 79.5541C51.7798 80.3956 52.4617 81.0775 53.3033 81.0775H59.8191C60.6607 81.0775 61.3426 80.3956 61.3426 79.5541C61.3426 78.7125 60.6607 78.0306 59.8191 78.0306Z" fill="#FFB800"/>
<path d="M59.8191 84.2723H53.3033C52.4617 84.2723 51.7798 84.9542 51.7798 85.7957C51.7798 86.6373 52.4617 87.3192 53.3033 87.3192H59.8191C60.6607 87.3192 61.3426 86.6373 61.3426 85.7957C61.3426 84.9542 60.6607 84.2723 59.8191 84.2723Z" fill="#FFB800"/>
<path d="M66.437 10.4971H72.8167C73.6583 10.4971 74.3401 9.81518 74.3401 8.97363C74.3401 8.13209 73.6583 7.4502 72.8167 7.4502H66.437C65.5954 7.4502 64.9135 8.13209 64.9135 8.97363C64.9135 9.81518 65.5956 10.4971 66.437 10.4971Z" fill="#FFB800"/>
<path d="M66.437 15.2736H72.8167C73.6583 15.2736 74.3401 14.5917 74.3401 13.7501C74.3401 12.9086 73.6583 12.2267 72.8167 12.2267H66.437C65.5954 12.2267 64.9135 12.9086 64.9135 13.7501C64.9135 14.5917 65.5956 15.2736 66.437 15.2736Z" fill="#FFB800"/>
<path d="M76.5438 0H65.9102C65.0687 0 64.3868 0.681891 64.3868 1.52344C64.3868 2.36498 65.0687 3.04688 65.9102 3.04688H76.5438C78.8103 3.04688 80.6543 4.89084 80.6543 7.15731V96.8423C80.6543 99.109 78.8103 100.953 76.5438 100.953H7.45614C5.18967 100.953 3.3457 99.109 3.3457 96.8423V7.15731C3.3457 4.89084 5.18967 3.04688 7.45614 3.04688H59.8191C60.6607 3.04688 61.3426 2.36498 61.3426 1.52344C61.3426 0.681891 60.6607 0 59.8191 0H7.45614C3.50942 0 0.298828 3.2108 0.298828 7.15731V96.8423C0.298828 100.789 3.50963 104 7.45614 104H76.5438C80.4905 104 83.7011 100.789 83.7011 96.8423V7.15731C83.7011 3.2108 80.4905 0 76.5438 0V0Z" fill="#FFB800"/>
</svg>
