<svg width="60" height="60" viewBox="0 0 60 60" fill="none" xmlns="http://www.w3.org/2000/svg">
<g clip-path="url(#clip0)">
<path d="M36.7864 24.4266L27.7714 32.9414L23.4448 28.4903C22.9652 27.9965 22.1754 27.9853 21.6821 28.4649C21.1883 28.9451 21.177 29.7344 21.6567 30.2282L26.8458 35.555C27.3279 36.0401 28.1069 36.0567 28.609 35.5922L38.5247 26.2396C38.7655 26.0125 38.9062 25.6989 38.9155 25.3683C38.9248 25.0376 38.8022 24.7167 38.5746 24.4764C38.092 23.9748 37.2963 23.9528 36.7864 24.4266Z" fill="#FFB800"/>
<path d="M30.0967 11.3225C19.7936 11.3225 11.416 19.7001 11.416 30.0032C11.416 40.3067 19.7936 48.6843 30.0967 48.6843C40.4002 48.6843 48.7778 40.3067 48.7778 30.0032C48.7778 19.7001 40.4002 11.3225 30.0967 11.3225ZM30.0967 46.1835C21.1691 46.1835 13.9168 38.9185 13.9168 30.0032C13.9168 21.0878 21.1691 13.8233 30.0967 13.8233C39.033 13.8233 46.277 21.0673 46.277 30.0032C46.277 38.939 39.033 46.1835 30.0967 46.1835Z" fill="#FFB800"/>
<path d="M55.8049 23.1258L56.2176 15.7108C56.2464 15.2131 55.9758 14.7457 55.5299 14.523L48.9277 11.1845L45.5893 4.58237C45.3622 4.14033 44.8977 3.87121 44.4014 3.89465L36.9738 4.29517L30.7844 0.205997C30.3672 -0.0689912 29.8265 -0.0689912 29.4089 0.205997L23.2195 4.29517L15.8051 3.88244C15.3069 3.85313 14.8399 4.12373 14.6172 4.57015L11.2783 11.1723L4.6766 14.5108C4.23408 14.7374 3.96544 15.2019 3.98888 15.6986L4.40112 23.1135L0.312442 29.303C0.0374541 29.7201 0.0374541 30.2608 0.312442 30.6784L4.38891 36.8801L3.97618 44.295C3.94737 44.7927 4.21747 45.2601 4.6639 45.4828L11.2661 48.8213L14.6045 55.4235C14.8311 55.866 15.2956 56.1346 15.7924 56.1112L23.2073 55.6984L29.3967 59.7871C29.8114 60.0709 30.3575 60.0709 30.7722 59.7871L36.9616 55.6984L44.3765 56.1112C44.8742 56.14 45.3412 55.8694 45.5644 55.4235L48.9028 48.8213L55.505 45.4828C55.947 45.2557 56.2161 44.7917 56.1927 44.295L55.78 36.8801L59.8686 30.6906C60.1436 30.2735 60.1436 29.7323 59.8686 29.3152L55.8049 23.1258ZM53.479 35.8548C53.3266 36.0785 53.2557 36.3477 53.2792 36.6178L53.6665 43.6322L47.4273 46.7831C47.1894 46.9022 46.9965 47.0957 46.8773 47.3335L43.7259 53.5728L36.7115 53.1854C36.4429 53.1757 36.1777 53.245 35.9486 53.3852L30.0967 57.2492L24.2452 53.3852C24.042 53.248 23.8027 53.1737 23.5575 53.1727H23.495L16.4801 53.5606L13.3292 47.3208C13.21 47.083 13.0171 46.89 12.7787 46.7708L6.52679 43.6322L6.9146 36.6178C6.92437 36.3491 6.85453 36.0839 6.71434 35.8548L2.85083 30.0029L6.71434 24.151C6.86722 23.9278 6.93805 23.6582 6.9146 23.3885L6.52679 16.3736L12.7665 13.2228C13.0044 13.1036 13.1973 12.9107 13.3165 12.6728L16.4674 6.43304L23.4823 6.82086C23.7504 6.83014 24.0156 6.76078 24.2452 6.6206L30.0967 2.75709L35.9486 6.6206C36.1723 6.77348 36.4419 6.8443 36.7115 6.82086L43.7259 6.43304L46.8773 12.6728C46.9965 12.9107 47.1894 13.1036 47.4273 13.2228L53.6665 16.3736L53.2792 23.3885C53.2694 23.6567 53.3393 23.9219 53.479 24.151L57.343 30.0029L53.479 35.8548Z" fill="#FFB800"/>
</g>
<defs>
<clipPath id="clip0">
<rect width="60" height="60" fill="white"/>
</clipPath>
</defs>
</svg>
