<svg width="40" height="40" viewBox="0 0 40 40" fill="none" xmlns="http://www.w3.org/2000/svg">
<circle cx="20" cy="20" r="20" fill="#FFB800"/>
<g clip-path="url(#clip0)">
<path d="M25.3186 21.5185L25.3107 21.5842C23.3866 20.6252 23.1854 20.4974 22.9369 20.8702C22.7645 21.1283 22.2622 21.7137 22.1109 21.8869C21.9577 22.0575 21.8055 22.0707 21.5456 21.9525C21.2831 21.8213 20.4405 21.5457 19.443 20.6532C18.666 19.9575 18.1445 19.1044 17.9905 18.8419C17.7341 18.3992 18.2705 18.3362 18.7587 17.4122C18.8462 17.2284 18.8016 17.084 18.7369 16.9537C18.6712 16.8224 18.1489 15.5362 17.9301 15.0234C17.7201 14.5124 17.504 14.5772 17.3421 14.5772C16.8381 14.5334 16.4697 14.5404 16.1451 14.8782C14.7329 16.4304 15.089 18.0317 16.2974 19.7344C18.6721 22.8424 19.9374 23.4147 22.2509 24.2092C22.8756 24.4078 23.4452 24.3798 23.8959 24.315C24.3981 24.2354 25.442 23.6842 25.6599 23.0673C25.883 22.4504 25.883 21.9385 25.8174 21.8204C25.7526 21.7023 25.5811 21.6367 25.3186 21.5185Z" fill="white"/>
<path d="M27.955 12.0173C21.2271 5.5134 10.0928 10.2305 10.0884 19.4058C10.0884 21.2398 10.5687 23.0283 11.484 24.6077L10 29.9994L15.5431 28.5539C22.46 32.2901 30.9965 27.3289 31 19.411C31 16.632 29.915 14.0167 27.9419 12.0514L27.955 12.0173ZM29.2518 19.3822C29.2465 26.061 21.9149 30.2322 16.1163 26.8232L15.8012 26.6359L12.52 27.489L13.3994 24.2997L13.1902 23.9715C9.58175 18.2272 13.7275 10.7197 20.563 10.7197C22.8853 10.7197 25.0649 11.6253 26.7064 13.2659C28.347 14.8925 29.2518 17.0722 29.2518 19.3822Z" fill="white"/>
</g>
<defs>
<clipPath id="clip0">
<rect width="21" height="21" fill="white" transform="translate(10 9)"/>
</clipPath>
</defs>
</svg>
