<svg width="48" height="48" viewBox="0 0 48 48" fill="none" xmlns="http://www.w3.org/2000/svg">
<path d="M23.9957 0C10.7431 0 0 10.7466 0 24.0009C0 37.2534 10.7431 48 23.9957 48C37.2551 48 48 37.2517 48 24.0009C48 10.7466 37.2551 0 23.9957 0ZM34.3149 30.4993L30.4924 34.3166C30.4924 34.3166 24.4454 27.8285 23.994 27.8285C23.5494 27.8285 17.5007 34.3166 17.5007 34.3166L13.6765 30.4993C13.6765 30.4993 20.1715 24.5398 20.1715 24.0094C20.1715 23.4705 13.6765 17.5093 13.6765 17.5093L17.5007 13.6834C17.5007 13.6834 23.5992 20.1749 23.994 20.1749C24.3922 20.1749 30.4924 13.6834 30.4924 13.6834L34.3149 17.5093C34.3149 17.5093 27.8182 23.5563 27.8182 24.0094C27.8182 24.4403 34.3149 30.4993 34.3149 30.4993Z" fill="#FFB800"/>
</svg>
