<svg width="183" height="59" viewBox="0 0 183 59" fill="none" xmlns="http://www.w3.org/2000/svg">
<path d="M85.9609 16.1797V23H83.9453V6.19531H91.668C93.1758 6.19531 94.4023 6.65625 95.3477 7.57812C96.293 8.5 96.7656 9.69531 96.7656 11.1641C96.7656 12.6484 96.293 13.8516 95.3477 14.7734C94.3945 15.7109 93.168 16.1797 91.668 16.1797H85.9609ZM85.9609 7.90625V14.4805H91.457C92.4336 14.4805 93.2266 14.1719 93.8359 13.5547C94.4375 12.9297 94.7383 12.1328 94.7383 11.1641C94.7383 10.1875 94.4375 9.39844 93.8359 8.79688C93.2344 8.20312 92.4414 7.90625 91.457 7.90625H85.9609ZM101.418 23H99.5312V11H101.418V14.1875C101.848 13.125 102.473 12.2969 103.293 11.7031C104.121 11.1094 105.066 10.8125 106.129 10.8125V12.6289C104.746 12.6289 103.617 13.0859 102.742 14C101.859 14.9219 101.418 16.082 101.418 17.4805V23ZM109.445 21.4531C108.273 20.3047 107.688 18.8203 107.688 17C107.688 15.1875 108.273 13.6992 109.445 12.5352C110.602 11.3867 112.105 10.8125 113.957 10.8125C115.793 10.8125 117.297 11.3867 118.469 12.5352C119.633 13.6992 120.215 15.1875 120.215 17C120.215 18.8203 119.633 20.3047 118.469 21.4531C117.305 22.6094 115.801 23.1875 113.957 23.1875C112.105 23.1875 110.602 22.6094 109.445 21.4531ZM109.703 17C109.703 18.3438 110.102 19.4375 110.898 20.2812C111.68 21.1328 112.699 21.5586 113.957 21.5586C115.223 21.5586 116.246 21.1328 117.027 20.2812C117.809 19.4453 118.199 18.3516 118.199 17C118.199 15.6328 117.809 14.5312 117.027 13.6953C116.238 12.8594 115.215 12.4414 113.957 12.4414C112.707 12.4414 111.688 12.8594 110.898 13.6953C110.102 14.5391 109.703 15.6406 109.703 17ZM127.668 23.1875C126.113 23.1875 124.852 22.6484 123.883 21.5703C122.914 20.5 122.43 19.1133 122.43 17.4102C122.43 15.4414 123.082 13.8477 124.387 12.6289C125.691 11.418 127.406 10.8125 129.531 10.8125C131.086 10.8125 132.496 11.0977 133.762 11.668V22.9531C133.762 24.625 133.199 25.9805 132.074 27.0195C130.934 28.0664 129.465 28.5898 127.668 28.5898C125.785 28.5898 124.238 28.0078 123.027 26.8438L124.117 25.7305C124.984 26.543 126.102 26.9531 127.469 26.9609C128.789 26.9609 129.855 26.5938 130.668 25.8594C131.48 25.1172 131.887 24.1562 131.887 22.9766V20.8438C131.457 21.5781 130.871 22.1523 130.129 22.5664C129.387 22.9805 128.566 23.1875 127.668 23.1875ZM129.25 12.4414C127.812 12.4414 126.652 12.8828 125.77 13.7656C124.887 14.6641 124.445 15.832 124.445 17.2695C124.445 18.5508 124.789 19.5938 125.477 20.3984C126.164 21.2031 127.039 21.6055 128.102 21.6055C129.195 21.6055 130.102 21.1953 130.82 20.375C131.531 19.5703 131.887 18.543 131.887 17.293V12.875C131.043 12.5859 130.164 12.4414 129.25 12.4414ZM139.293 23H137.406V11H139.293V14.1875C139.723 13.125 140.348 12.2969 141.168 11.7031C141.996 11.1094 142.941 10.8125 144.004 10.8125V12.6289C142.621 12.6289 141.492 13.0859 140.617 14C139.734 14.9219 139.293 16.082 139.293 17.4805V23ZM145.668 19.7891C145.668 18.6016 146.227 17.6367 147.344 16.8945C148.461 16.1523 149.895 15.7812 151.645 15.7812C152.574 15.7812 153.414 15.875 154.164 16.0625V14.9609C154.164 14.2266 153.855 13.6211 153.238 13.1445C152.621 12.6758 151.832 12.4414 150.871 12.4414C150.176 12.4414 149.469 12.5586 148.75 12.793C148.023 13.043 147.438 13.3672 146.992 13.7656L146.031 12.6289C146.57 12.0898 147.305 11.6484 148.234 11.3047C149.148 10.9766 150.086 10.8125 151.047 10.8125C152.523 10.8125 153.723 11.1914 154.645 11.9492C155.574 12.7148 156.039 13.7031 156.039 14.9141V23H154.164V20.6445C153.734 21.4336 153.129 22.0547 152.348 22.5078C151.566 22.9609 150.699 23.1875 149.746 23.1875C148.551 23.1875 147.574 22.8672 146.816 22.2266C146.051 21.5938 145.668 20.7812 145.668 19.7891ZM151.762 17.0938C150.559 17.0938 149.57 17.3281 148.797 17.7969C148.023 18.2812 147.637 18.8867 147.637 19.6133C147.637 20.207 147.891 20.6914 148.398 21.0664C148.906 21.4414 149.547 21.6289 150.32 21.6289C151.453 21.6289 152.379 21.2227 153.098 20.4102C153.809 19.6055 154.164 18.6211 154.164 17.457C153.508 17.2148 152.707 17.0938 151.762 17.0938ZM161.582 16.4258V23H159.695V11H161.582V12.9688C161.98 12.2891 162.523 11.7617 163.211 11.3867C163.906 11.0039 164.684 10.8125 165.543 10.8125C166.473 10.8125 167.273 11.0273 167.945 11.457C168.617 11.8867 169.105 12.4883 169.41 13.2617C169.816 12.5195 170.406 11.9219 171.18 11.4688C171.945 11.0312 172.789 10.8125 173.711 10.8125C175.047 10.8125 176.105 11.2266 176.887 12.0547C177.676 12.8906 178.07 13.9883 178.07 15.3477V23H176.184V15.3477C176.184 14.4727 175.918 13.7578 175.387 13.2031C174.863 12.6641 174.168 12.3945 173.301 12.3945C172.293 12.3945 171.461 12.7539 170.805 13.4727C170.148 14.1836 169.82 15.1133 169.82 16.2617V23H167.945V15.3477C167.945 14.4648 167.684 13.75 167.16 13.2031C166.637 12.6641 165.945 12.3945 165.086 12.3945C164.086 12.3945 163.25 12.7773 162.578 13.543C161.914 14.3008 161.582 15.2617 161.582 16.4258Z" fill="black"/>
<path d="M83.9453 52V35.1953H86.5352L92.875 47.6289L99.2031 35.1953H101.805V52H99.8594V38.125L93.6367 50.3477H92.1016L85.8906 38.125V52H83.9453ZM105.215 48.7891C105.215 47.6016 105.773 46.6367 106.891 45.8945C108.008 45.1523 109.441 44.7812 111.191 44.7812C112.121 44.7812 112.961 44.875 113.711 45.0625V43.9609C113.711 43.2266 113.402 42.6211 112.785 42.1445C112.168 41.6758 111.379 41.4414 110.418 41.4414C109.723 41.4414 109.016 41.5586 108.297 41.793C107.57 42.043 106.984 42.3672 106.539 42.7656L105.578 41.6289C106.117 41.0898 106.852 40.6484 107.781 40.3047C108.695 39.9766 109.633 39.8125 110.594 39.8125C112.07 39.8125 113.27 40.1914 114.191 40.9492C115.121 41.7148 115.586 42.7031 115.586 43.9141V52H113.711V49.6445C113.281 50.4336 112.676 51.0547 111.895 51.5078C111.113 51.9609 110.246 52.1875 109.293 52.1875C108.098 52.1875 107.121 51.8672 106.363 51.2266C105.598 50.5938 105.215 49.7812 105.215 48.7891ZM111.309 46.0938C110.105 46.0938 109.117 46.3281 108.344 46.7969C107.57 47.2812 107.184 47.8867 107.184 48.6133C107.184 49.207 107.438 49.6914 107.945 50.0664C108.453 50.4414 109.094 50.6289 109.867 50.6289C111 50.6289 111.926 50.2227 112.645 49.4102C113.355 48.6055 113.711 47.6211 113.711 46.457C113.055 46.2148 112.254 46.0938 111.309 46.0938ZM121.129 52H119.242V40H121.129V42.6133C121.559 41.7305 122.168 41.043 122.957 40.5508C123.754 40.0586 124.648 39.8125 125.641 39.8125C127 39.8125 128.109 40.2344 128.969 41.0781C129.828 41.9375 130.258 43.043 130.258 44.3945V52H128.383V44.7812C128.383 43.7812 128.078 42.9688 127.469 42.3438C126.859 41.7266 126.074 41.418 125.113 41.418C123.926 41.418 122.965 41.8672 122.23 42.7656C121.496 43.6641 121.129 44.8125 121.129 46.2109V52ZM133.434 48.7891C133.434 47.6016 133.992 46.6367 135.109 45.8945C136.227 45.1523 137.66 44.7812 139.41 44.7812C140.34 44.7812 141.18 44.875 141.93 45.0625V43.9609C141.93 43.2266 141.621 42.6211 141.004 42.1445C140.387 41.6758 139.598 41.4414 138.637 41.4414C137.941 41.4414 137.234 41.5586 136.516 41.793C135.789 42.043 135.203 42.3672 134.758 42.7656L133.797 41.6289C134.336 41.0898 135.07 40.6484 136 40.3047C136.914 39.9766 137.852 39.8125 138.812 39.8125C140.289 39.8125 141.488 40.1914 142.41 40.9492C143.34 41.7148 143.805 42.7031 143.805 43.9141V52H141.93V49.6445C141.5 50.4336 140.895 51.0547 140.113 51.5078C139.332 51.9609 138.465 52.1875 137.512 52.1875C136.316 52.1875 135.34 51.8672 134.582 51.2266C133.816 50.5938 133.434 49.7812 133.434 48.7891ZM139.527 46.0938C138.324 46.0938 137.336 46.3281 136.562 46.7969C135.789 47.2812 135.402 47.8867 135.402 48.6133C135.402 49.207 135.656 49.6914 136.164 50.0664C136.672 50.4414 137.312 50.6289 138.086 50.6289C139.219 50.6289 140.145 50.2227 140.863 49.4102C141.574 48.6055 141.93 47.6211 141.93 46.457C141.273 46.2148 140.473 46.0938 139.527 46.0938ZM151.973 52.1875C150.418 52.1875 149.156 51.6484 148.188 50.5703C147.219 49.5 146.734 48.1133 146.734 46.4102C146.734 44.4414 147.387 42.8477 148.691 41.6289C149.996 40.418 151.711 39.8125 153.836 39.8125C155.391 39.8125 156.801 40.0977 158.066 40.668V51.9531C158.066 53.625 157.504 54.9805 156.379 56.0195C155.238 57.0664 153.77 57.5898 151.973 57.5898C150.09 57.5898 148.543 57.0078 147.332 55.8438L148.422 54.7305C149.289 55.543 150.406 55.9531 151.773 55.9609C153.094 55.9609 154.16 55.5938 154.973 54.8594C155.785 54.1172 156.191 53.1562 156.191 51.9766V49.8438C155.762 50.5781 155.176 51.1523 154.434 51.5664C153.691 51.9805 152.871 52.1875 151.973 52.1875ZM153.555 41.4414C152.117 41.4414 150.957 41.8828 150.074 42.7656C149.191 43.6641 148.75 44.832 148.75 46.2695C148.75 47.5508 149.094 48.5938 149.781 49.3984C150.469 50.2031 151.344 50.6055 152.406 50.6055C153.5 50.6055 154.406 50.1953 155.125 49.375C155.836 48.5703 156.191 47.543 156.191 46.293V41.875C155.348 41.5859 154.469 41.4414 153.555 41.4414ZM172.727 46.5742H162.977C163.039 47.7539 163.508 48.7109 164.383 49.4453C165.266 50.1875 166.367 50.5586 167.688 50.5586C169.125 50.5586 170.258 50.1602 171.086 49.3633L172.152 50.418C170.996 51.6055 169.434 52.1953 167.465 52.1875C165.543 52.1875 163.984 51.6016 162.789 50.4297C161.586 49.2734 160.984 47.75 160.984 45.8594C160.984 44.0938 161.535 42.6406 162.637 41.5C163.723 40.375 165.133 39.8125 166.867 39.8125C168.617 39.8125 170.035 40.3867 171.121 41.5352C172.207 42.6914 172.75 44.1875 172.75 46.0234C172.75 46.2188 172.742 46.4023 172.727 46.5742ZM163 45.1328H170.805C170.766 44.0312 170.395 43.1367 169.691 42.4492C168.98 41.7617 168.078 41.418 166.984 41.418C165.898 41.418 164.988 41.7617 164.254 42.4492C163.512 43.1445 163.094 44.0391 163 45.1328ZM177.59 52H175.703V40H177.59V43.1875C178.02 42.125 178.645 41.2969 179.465 40.7031C180.293 40.1094 181.238 39.8125 182.301 39.8125V41.6289C180.918 41.6289 179.789 42.0859 178.914 43C178.031 43.9219 177.59 45.082 177.59 46.4805V52Z" fill="#FFB800"/>
<rect width="70" height="59" fill="#C4C4C4"/>
<path d="M19.99 37.18C19.69 37.18 19.45 37.15 19.27 37.09C19.102 37.03 19.012 37 19 37V36.28C19.384 36.28 19.708 36.1 19.972 35.74C20.236 35.38 20.392 34.84 20.44 34.12L20.8 28H26.308V37H24.688V29.17H22.348L22.06 34.12C22 35.152 21.784 35.92 21.412 36.424C21.04 36.928 20.566 37.18 19.99 37.18ZM31.6127 37.18C30.4847 37.18 29.6447 36.826 29.0927 36.118C28.5527 35.398 28.2827 34.192 28.2827 32.5C28.2827 30.808 28.5527 29.608 29.0927 28.9C29.6447 28.18 30.4847 27.82 31.6127 27.82C32.7407 27.82 33.5747 28.18 34.1147 28.9C34.6667 29.608 34.9427 30.808 34.9427 32.5C34.9427 34.192 34.6667 35.398 34.1147 36.118C33.5747 36.826 32.7407 37.18 31.6127 37.18ZM31.6127 36.19C32.1167 36.19 32.5247 35.908 32.8367 35.344C33.1607 34.78 33.3227 33.832 33.3227 32.5C33.3227 31.168 33.1607 30.22 32.8367 29.656C32.5247 29.092 32.1167 28.81 31.6127 28.81C31.1087 28.81 30.6947 29.092 30.3707 29.656C30.0587 30.22 29.9027 31.168 29.9027 32.5C29.9027 33.832 30.0587 34.78 30.3707 35.344C30.6947 35.908 31.1087 36.19 31.6127 36.19ZM36.922 37V28H42.142V29.17H38.542V37H36.922ZM46.2904 37.18C45.1624 37.18 44.3224 36.826 43.7704 36.118C43.2304 35.398 42.9604 34.192 42.9604 32.5C42.9604 30.808 43.2304 29.608 43.7704 28.9C44.3224 28.18 45.1624 27.82 46.2904 27.82C47.4184 27.82 48.2524 28.18 48.7924 28.9C49.3444 29.608 49.6204 30.808 49.6204 32.5C49.6204 34.192 49.3444 35.398 48.7924 36.118C48.2524 36.826 47.4184 37.18 46.2904 37.18ZM46.2904 36.19C46.7944 36.19 47.2024 35.908 47.5144 35.344C47.8384 34.78 48.0004 33.832 48.0004 32.5C48.0004 31.168 47.8384 30.22 47.5144 29.656C47.2024 29.092 46.7944 28.81 46.2904 28.81C45.7864 28.81 45.3724 29.092 45.0484 29.656C44.7364 30.22 44.5804 31.168 44.5804 32.5C44.5804 33.832 44.7364 34.78 45.0484 35.344C45.3724 35.908 45.7864 36.19 46.2904 36.19Z" fill="black"/>
</svg>
